<?xml version="1.0" standalone="no"?>
<!DOCTYPE svg PUBLIC "-//W3C//DTD SVG 20010904//EN"
 "http://www.w3.org/TR/2001/REC-SVG-20010904/DTD/svg10.dtd">
<svg version="1.0" xmlns="http://www.w3.org/2000/svg"
 width="978.000000pt" height="816.000000pt" viewBox="0 0 978.000000 816.000000"
 preserveAspectRatio="xMidYMid meet">
<metadata>
Created by potrace 1.16, written by Peter Selinger 2001-2019
</metadata>
<g transform="translate(0.000000,816.000000) scale(0.100000,-0.100000)"
fill="#000000" stroke="none">
<path d="M4746 7794 c-3 -9 -6 -48 -6 -87 -1 -68 -2 -70 -15 -47 -8 14 -14 33
-15 43 0 31 -34 15 -40 -18 l-5 -30 -30 42 c-47 67 -74 53 -47 -25 8 -24 13
-45 10 -47 -5 -5 -158 83 -184 106 -11 11 -24 16 -27 12 -12 -11 -7 -76 8
-118 8 -22 15 -44 15 -48 0 -12 -117 70 -123 88 -8 20 -37 19 -37 -2 0 -9 16
-45 35 -80 l35 -63 -64 0 c-47 0 -82 7 -134 29 -39 15 -75 25 -81 22 -11 -7
28 -111 52 -139 34 -40 27 -43 -28 -14 -78 42 -90 29 -35 -37 23 -27 47 -52
54 -55 20 -8 -15 -24 -82 -37 -60 -11 -138 -8 -189 7 -70 20 23 -94 134 -164
24 -15 43 -30 43 -34 0 -3 -24 -21 -54 -38 -30 -17 -69 -44 -86 -60 -18 -17
-36 -30 -41 -30 -5 0 -9 -9 -9 -20 0 -25 12 -25 78 0 29 11 57 20 64 20 6 0
-22 -27 -63 -60 -40 -33 -80 -60 -87 -60 -7 0 -12 -8 -10 -17 3 -16 15 -18
116 -14 61 2 112 0 112 -4 0 -3 -13 -25 -29 -48 -32 -48 -91 -161 -91 -177 0
-21 31 -8 66 28 38 40 34 25 -13 -50 -12 -21 -23 -42 -23 -48 0 -17 32 -11 88
15 28 13 52 21 51 17 0 -4 -29 -31 -65 -61 -35 -29 -64 -60 -64 -68 0 -8 -34
-51 -76 -96 -148 -160 -230 -312 -275 -507 -18 -79 -24 -92 -49 -105 -31 -16
-40 -33 -40 -75 0 -49 -16 -78 -49 -85 -24 -5 -33 -14 -41 -43 -5 -20 -10 -45
-10 -54 0 -19 4 -18 -247 -43 -268 -25 -361 -52 -543 -157 -171 -98 -267 -148
-285 -148 -11 0 -49 18 -86 41 -81 49 -116 50 -139 4 -11 -22 -16 -75 -18
-195 -5 -222 10 -311 77 -445 54 -108 171 -292 216 -339 27 -27 31 -28 92 -22
74 8 93 0 124 -51 45 -74 171 -248 193 -266 37 -31 94 -57 126 -57 17 0 48 9
70 20 37 19 42 19 126 4 49 -8 89 -16 91 -17 1 -2 -4 -25 -12 -52 -37 -129
-67 -352 -72 -531 l-5 -180 -106 -75 c-141 -99 -186 -125 -258 -149 -63 -21
-143 -82 -363 -272 -134 -117 -121 -117 -121 4 0 133 16 262 40 315 10 23 46
85 79 136 49 75 61 102 61 134 0 23 8 50 18 64 33 44 122 190 122 200 0 26
-235 412 -285 467 -49 55 -114 93 -200 117 -105 31 -262 8 -459 -65 -81 -31
-361 -221 -499 -340 -166 -143 -257 -252 -330 -395 -20 -38 -63 -113 -96 -165
-33 -52 -68 -107 -76 -123 -9 -15 -58 -87 -109 -160 -208 -295 -273 -452 -297
-716 -12 -137 -2 -291 31 -450 22 -108 38 -137 80 -146 33 -7 38 -15 87 -120
22 -48 28 -71 20 -74 -7 -2 -20 -10 -29 -19 -34 -29 -20 -329 26 -595 l23
-130 -33 -126 c-17 -69 -41 -167 -53 -217 -11 -51 -24 -99 -27 -108 -6 -15
362 -16 4470 -16 2462 0 4476 2 4476 5 0 9 -160 196 -286 335 -256 282 -437
453 -599 565 -38 27 -97 69 -130 94 -59 46 -212 153 -480 335 -77 52 -178 126
-225 163 -74 60 -92 81 -146 173 l-62 104 61 57 c34 31 89 79 122 106 65 54
300 293 432 438 179 198 435 523 573 730 30 44 73 109 98 145 116 174 382 764
501 1115 144 426 282 905 281 978 0 31 -25 18 -55 -30 -16 -27 -32 -52 -34
-58 -8 -19 -304 -460 -336 -500 -17 -22 -58 -78 -90 -125 -31 -47 -60 -87 -64
-90 -3 -3 -67 -81 -142 -175 -305 -380 -792 -832 -1214 -1128 -118 -83 -591
-399 -655 -437 -30 -18 -97 -59 -148 -91 l-93 -57 -97 102 c-198 205 -207 215
-186 222 11 4 96 38 189 77 94 38 206 85 250 103 l80 33 12 63 c6 35 14 79 17
99 5 29 20 46 92 105 130 105 341 251 419 288 39 19 111 46 160 60 210 61 229
68 264 103 28 28 32 38 27 65 -13 64 -84 114 -267 187 -69 27 -160 62 -202 76
-139 46 -408 83 -788 106 l-195 12 17 83 c28 133 42 324 36 463 -7 140 -14
185 -59 380 -26 114 -29 139 -19 171 6 21 8 46 4 56 -11 32 -202 313 -295 435
-48 64 -118 149 -154 188 -70 75 -327 290 -426 356 -57 37 -61 43 -73 101 -6
30 -5 30 25 26 38 -6 40 14 5 92 l-25 56 24 -6 c39 -9 39 12 1 80 l-36 64 51
11 c28 6 60 11 71 11 21 0 38 28 23 39 -5 4 -38 37 -74 75 l-65 67 38 -6 c54
-10 49 12 -20 78 l-57 54 43 28 c41 28 71 69 71 98 0 11 -22 16 -89 21 -50 4
-102 11 -118 15 -26 7 -23 9 40 32 48 17 67 29 67 41 0 16 -12 18 -118 18
l-118 0 -13 62 c-16 78 -66 191 -83 186 -6 -2 -19 -32 -29 -66 -9 -33 -20 -66
-24 -72 -7 -11 -67 55 -91 102 -16 31 -44 38 -44 11 0 -10 -19 11 -42 45 -44
63 -61 74 -72 46z m129 -190 c32 -52 62 -94 67 -94 11 0 10 0 -7 50 -8 24 -13
45 -11 47 2 2 18 -15 36 -37 18 -23 36 -38 40 -33 4 4 15 31 25 58 10 28 22
54 26 58 8 10 40 -73 59 -150 l12 -53 91 -1 92 0 -58 -26 c-32 -14 -56 -31
-54 -37 4 -13 121 -34 189 -35 26 -1 49 -5 53 -11 9 -15 -15 -45 -61 -74 -24
-15 -44 -31 -44 -34 0 -4 21 -28 48 -55 l47 -49 -40 7 c-22 3 -44 11 -49 16
-6 5 -15 9 -20 9 -6 0 33 -44 87 -98 53 -53 97 -101 97 -105 0 -4 -31 -7 -70
-7 l-70 0 4 -29 c2 -16 16 -51 31 -77 l27 -47 -26 7 c-31 8 -32 2 -6 -64 28
-71 25 -79 -15 -40 -25 24 -35 29 -35 18 0 -9 12 -26 27 -38 20 -15 24 -23 15
-29 -9 -6 -11 -24 -7 -62 6 -52 5 -53 -11 -31 -30 40 -37 27 -32 -60 5 -66 4
-76 -5 -50 -15 47 -27 39 -28 -20 -1 -29 -4 -66 -8 -83 l-7 -30 -8 38 c-9 47
-26 44 -41 -9 l-12 -39 -4 45 c-4 37 -1 52 20 84 22 34 26 51 26 115 0 77 -9
131 -23 131 -4 0 -16 -19 -26 -43 -13 -30 -20 -37 -23 -24 -3 9 -9 17 -15 17
-10 0 -7 -37 8 -88 5 -18 3 -21 -10 -16 -15 6 -17 -2 -16 -67 1 -41 1 -87 0
-104 -1 -26 -3 -27 -10 -10 -5 11 -9 38 -9 60 -1 50 -11 85 -22 85 -5 0 -9
-12 -9 -26 0 -49 -17 -14 -29 61 -13 77 -30 101 -32 43 0 -18 -3 -26 -6 -18
-3 8 -13 33 -24 55 -10 22 -23 52 -28 68 -6 15 -16 27 -22 27 -6 0 -8 -7 -5
-15 11 -29 34 -120 41 -158 4 -27 3 -37 -4 -32 -6 3 -11 11 -11 16 0 5 -29 55
-65 110 -65 100 -96 122 -71 51 32 -93 27 -98 -23 -22 -28 41 -57 75 -63 75
-8 0 -22 -45 -39 -125 l-25 -125 -8 65 c-19 172 -29 240 -37 240 -10 0 -54
-84 -81 -155 l-19 -50 4 68 c6 93 -10 83 -50 -29 -37 -103 -43 -82 -17 59 9
48 13 91 10 94 -8 9 -78 -69 -153 -169 -32 -42 -58 -76 -60 -75 -9 10 31 137
57 176 51 80 29 83 -26 4 -27 -39 -54 -79 -60 -89 -10 -17 -11 -15 -7 9 3 16
1 27 -5 27 -13 0 -62 -149 -62 -189 0 -16 -3 -42 -6 -59 -5 -23 -10 -29 -26
-24 -18 4 -19 11 -13 81 3 42 8 86 11 98 7 37 -14 35 -42 -4 -25 -36 -26 -37
-20 -9 15 63 18 86 13 86 -3 0 -28 -16 -57 -35 -29 -19 -56 -35 -62 -35 -5 0
4 24 20 53 37 65 67 145 58 154 -3 4 -27 -13 -52 -38 -53 -50 -46 -31 21 60
25 34 45 65 43 67 -2 2 -51 -1 -108 -6 -58 -5 -107 -7 -109 -4 -3 2 3 10 11
17 60 47 168 143 168 149 0 12 -19 10 -84 -7 -33 -9 -61 -14 -63 -12 -2 2 33
24 77 48 43 24 80 49 80 54 0 6 -31 29 -68 52 -37 24 -83 56 -102 73 l-34 30
69 0 c66 0 180 22 219 42 17 9 16 12 -15 44 -18 19 -31 34 -28 34 2 0 28 -9
58 -20 29 -12 56 -19 58 -16 3 3 -17 31 -45 63 -49 57 -88 121 -79 129 2 3 30
-6 61 -20 56 -25 196 -59 205 -51 8 8 -7 17 -41 25 -32 8 -31 8 13 9 25 1 48
4 52 7 3 4 -8 24 -25 45 -17 22 -29 42 -26 45 3 3 38 -16 78 -41 40 -25 74
-44 77 -42 2 3 -12 37 -32 77 -58 116 -50 121 79 49 59 -33 111 -57 114 -54 3
3 0 22 -6 42 -6 20 -10 39 -8 41 2 2 19 -15 37 -37 35 -44 49 -51 50 -23 0 11
6 5 16 -15 22 -44 33 -42 33 6 0 21 3 66 7 101 l6 63 22 -27 c12 -15 48 -70
80 -122z m-206 -1028 c11 -112 7 -136 -26 -136 -22 0 -25 25 -9 65 18 43 20
55 7 55 -5 0 -17 -23 -26 -51 -16 -48 -16 -51 1 -70 12 -13 26 -18 40 -15 19
5 24 1 29 -24 8 -36 25 -40 25 -6 0 26 28 40 51 25 8 -5 56 -9 108 -9 73 0 98
4 112 16 17 16 19 15 28 -10 12 -30 31 -35 31 -7 0 14 5 18 19 14 14 -4 20
-17 24 -56 2 -28 10 -53 16 -55 6 -2 11 -18 11 -36 0 -89 -70 -196 -229 -349
-147 -141 -202 -180 -254 -180 -38 0 -46 5 -95 59 -72 79 -163 216 -223 336
-99 198 -112 266 -68 362 l28 61 -6 -69 c-5 -53 -3 -67 6 -62 7 4 28 0 49 -10
20 -9 57 -19 82 -22 25 -2 50 -8 56 -13 13 -11 47 28 38 44 -4 7 2 3 14 -7 12
-11 22 -14 22 -8 0 7 6 12 13 12 7 0 19 33 29 85 20 102 68 217 78 189 4 -11
12 -68 19 -128z m170 18 c17 -28 31 -56 31 -61 0 -5 -26 -17 -57 -27 -32 -10
-64 -21 -72 -24 -15 -6 -13 12 16 141 15 67 15 67 33 45 9 -13 31 -46 49 -74z
m361 -332 c0 -45 3 -53 17 -50 12 2 22 19 29 53 12 51 13 50 35 -20 6 -22 16
-43 21 -46 14 -9 -27 -306 -57 -418 -35 -129 -102 -262 -246 -486 -121 -189
-175 -291 -200 -374 -10 -35 -20 -47 -48 -58 -49 -21 -72 -7 -119 74 -75 129
-75 130 -77 328 -1 99 -5 205 -9 235 -16 130 -17 136 -6 112 5 -13 25 -29 45
-37 19 -9 42 -26 51 -40 9 -14 23 -25 31 -25 25 0 -18 60 -58 81 -41 20 -44
27 -54 92 -4 26 -16 56 -26 68 -28 33 -23 42 8 13 15 -14 47 -30 70 -37 24 -6
43 -17 43 -25 0 -19 29 -72 57 -106 19 -23 24 -38 21 -70 -4 -49 12 -63 24
-21 12 43 2 85 -31 120 -37 39 -57 96 -37 107 76 42 321 278 383 368 31 46 63
126 63 159 0 14 5 18 19 14 16 -4 21 2 27 32 9 51 24 25 24 -43z m170 -57 c0
-219 -29 -449 -77 -599 -35 -112 -60 -158 -180 -334 -57 -83 -117 -181 -133
-216 -33 -71 -108 -311 -136 -428 -10 -43 -20 -78 -23 -78 -16 1 -296 417
-332 494 -28 59 -28 62 -27 240 1 137 -5 236 -25 406 -14 123 -24 226 -23 228
2 1 19 -19 38 -45 34 -48 35 -51 58 -253 15 -134 22 -255 21 -348 -1 -80 4
-163 10 -190 17 -66 58 -145 134 -257 36 -52 65 -102 65 -110 0 -43 20 -2 54
113 56 188 80 238 215 450 143 226 202 338 236 443 31 98 61 256 75 394 19
192 20 194 36 188 11 -4 14 -26 14 -98z m3940 -1227 c-252 -867 -507 -1462
-812 -1896 -458 -652 -980 -1188 -1553 -1592 -525 -371 -1027 -572 -1848 -739
-446 -92 -1047 -180 -1047 -155 0 5 12 50 25 99 34 119 90 346 104 416 l12 55
67 14 c37 7 166 37 287 67 890 218 1523 445 1995 716 265 152 589 382 882 626
203 169 266 227 501 460 463 458 729 794 987 1246 95 167 335 639 410 808 25
55 46 95 47 90 2 -5 -24 -102 -57 -215z m-6420 -712 l115 -27 72 -77 c40 -42
73 -71 73 -64 0 7 -24 38 -52 69 l-53 56 35 -7 c19 -3 38 -10 41 -14 16 -16
109 -185 105 -189 -2 -3 -55 1 -116 7 -115 12 -151 9 -230 -17 -72 -24 -98
-48 -102 -91 l-3 -37 -66 88 c-72 97 -143 223 -154 275 -4 22 -2 38 6 49 20
23 185 13 329 -21z m1542 -33 c22 -22 38 -47 38 -60 0 -27 -135 -213 -155
-213 -24 0 -45 12 -45 26 0 7 18 58 39 111 60 149 71 173 78 173 4 0 24 -17
45 -37z m-1190 -72 c129 -51 249 -113 263 -135 14 -22 201 -432 249 -548 l28
-66 -27 -51 c-16 -28 -31 -51 -35 -51 -9 0 -80 76 -132 140 -33 41 -212 338
-295 490 -16 30 -41 73 -54 95 -57 90 -90 155 -80 155 6 0 43 -13 83 -29z
m1420 -132 c89 -73 97 -82 85 -99 -23 -38 -48 -36 -81 6 -53 66 -94 109 -100
103 -3 -3 19 -35 49 -72 l54 -66 -33 -11 c-18 -5 -48 -26 -66 -45 -19 -19 -39
-35 -44 -35 -12 0 -55 51 -75 88 -6 12 -16 22 -22 22 -13 0 24 -71 50 -94 28
-26 27 -40 -3 -24 -37 20 -136 117 -136 134 0 8 30 56 67 106 l68 92 7 -39 c3
-22 9 -61 13 -87 9 -66 27 -62 20 5 l-6 52 26 -47 c14 -27 30 -48 35 -48 14 0
14 1 -29 82 -21 40 -42 84 -46 97 -7 23 -6 23 31 -8 22 -18 83 -69 136 -112z
m-1517 -30 c50 -6 94 -15 99 -19 7 -7 -30 -170 -39 -170 -1 0 -46 7 -99 15
-87 13 -102 13 -139 -1 -70 -26 -81 -26 -117 -2 -23 16 -40 38 -50 66 -15 42
-14 44 10 62 39 30 130 58 190 59 30 1 96 -4 145 -10z m-1035 -66 c65 -22 125
-67 176 -131 39 -51 195 -304 238 -389 l16 -33 -48 -78 c-72 -113 -94 -160
-87 -183 5 -14 -15 -51 -68 -132 -91 -137 -151 -245 -176 -320 -26 -75 -10
-74 18 1 12 31 31 73 42 92 l20 35 -6 -40 c-4 -22 -22 -87 -41 -145 -19 -58
-53 -181 -76 -274 -39 -156 -43 -167 -51 -135 -20 74 7 500 43 665 14 66 25
79 85 112 33 18 57 41 72 67 24 43 113 302 113 329 0 9 -14 25 -31 34 -18 10
-79 81 -144 167 -158 212 -207 262 -283 297 -35 16 -89 32 -120 36 l-57 8 70
17 c39 9 84 18 100 21 47 6 145 -5 195 -21z m1223 -110 c158 -265 193 -321
234 -375 l44 -57 -31 -108 c-17 -60 -52 -171 -77 -248 -25 -77 -51 -169 -59
-205 -21 -99 -18 -319 6 -442 22 -112 26 -203 10 -193 -40 25 62 -163 118
-216 21 -20 72 -49 117 -68 112 -46 119 -55 123 -150 l4 -78 -43 -6 c-24 -3
-45 -4 -47 -2 -2 2 4 17 12 34 19 35 20 45 6 36 -18 -11 -60 -102 -70 -152 -6
-27 -14 -106 -19 -176 -8 -102 -7 -139 5 -183 35 -136 -7 -181 -74 -79 l-32
50 35 3 c36 3 50 21 18 23 -11 0 -13 3 -5 6 21 8 13 23 -13 23 -14 0 -28 -7
-32 -16 -13 -36 -22 15 -21 132 0 101 -3 128 -20 168 -26 57 -60 106 -74 106
-6 0 -3 -10 6 -22 9 -13 28 -45 43 -73 26 -48 27 -57 27 -197 1 -133 0 -145
-15 -132 -8 8 -23 14 -32 14 -11 0 -20 14 -27 43 -31 117 -65 218 -96 280 -35
68 -35 69 -33 198 0 72 -1 133 -4 135 -11 11 -19 -109 -15 -204 5 -85 9 -104
37 -153 29 -53 95 -272 84 -283 -9 -9 -32 6 -27 18 3 8 -11 19 -34 28 -38 15
-39 16 -51 90 -9 55 -23 94 -54 148 -23 41 -48 76 -54 78 -21 6 -15 -12 26
-83 47 -79 60 -134 37 -147 -23 -13 -21 -41 3 -33 15 4 20 -1 25 -26 4 -22 14
-34 36 -42 30 -11 42 -37 18 -37 -7 0 -40 14 -72 30 -32 17 -64 30 -71 30 -19
0 -25 24 -25 100 0 49 -7 89 -26 139 l-26 70 17 68 c15 58 17 113 16 363 -1
162 -3 320 -6 350 -5 66 -12 259 -21 590 -7 262 1 386 37 565 21 103 90 375
95 375 2 0 32 -48 67 -107z m-1443 46 l45 -20 -51 -18 c-66 -22 -102 -46 -116
-77 -9 -19 -27 -29 -82 -45 -193 -56 -272 -82 -280 -90 -14 -13 1 -11 58 6 42
13 47 13 36 0 -7 -8 -31 -20 -54 -25 -77 -20 -336 -136 -336 -150 0 -9 40 5
105 36 22 11 15 2 -25 -32 -178 -153 -265 -267 -406 -527 l-55 -102 4 50 c6
70 102 305 162 395 113 170 408 419 669 565 82 46 109 53 206 54 56 0 87 -5
120 -20z m127 -101 c27 -29 102 -124 166 -210 65 -87 121 -158 125 -158 5 0
16 -6 26 -13 16 -12 15 -20 -19 -137 -54 -180 -69 -207 -137 -247 -32 -19 -64
-46 -72 -61 -20 -40 -44 -191 -56 -364 -6 -84 -14 -189 -18 -233 l-7 -79 -86
-66 c-341 -258 -723 -597 -862 -765 -32 -38 -77 -92 -100 -120 -90 -106 -267
-352 -372 -517 l-62 -96 -26 54 c-25 50 -27 64 -26 172 1 64 4 146 8 182 6 65
6 65 39 68 19 2 32 9 32 17 0 15 -64 165 -104 242 -13 26 -38 57 -55 68 -46
30 -55 74 -55 275 0 198 8 241 77 413 64 157 104 225 136 232 30 6 76 58 131
145 31 49 35 62 37 132 l2 78 96 177 c53 98 116 203 138 233 59 78 177 193
281 275 93 73 142 100 202 111 19 3 49 18 66 33 18 15 76 40 141 61 96 30 113
39 127 65 18 34 108 85 150 85 20 0 41 -15 77 -52z m2514 -253 c43 -15 302
-155 489 -263 52 -30 127 -74 167 -97 85 -49 353 -171 433 -196 l55 -17 -50
-7 c-250 -36 -387 -74 -524 -147 -62 -33 -129 -64 -148 -68 -85 -20 -146 32
-188 162 -15 45 -36 100 -47 121 -40 80 -133 162 -292 257 -75 45 -91 51 -107
41 -58 -36 2 119 74 191 42 43 68 47 138 23z m2329 -26 c0 -42 -44 -266 -54
-277 -19 -20 -414 -178 -556 -222 -160 -50 -344 -84 -595 -110 -228 -24 -371
-50 -457 -85 -32 -13 -114 -55 -181 -94 -67 -38 -143 -75 -167 -82 -41 -11
-49 -10 -89 11 -43 21 -174 147 -169 161 4 8 135 119 141 119 3 0 15 -28 26
-63 40 -120 105 -167 200 -146 25 5 91 35 145 66 126 72 201 93 504 143 295
49 306 53 547 214 123 82 243 151 430 245 143 72 263 131 268 131 4 0 7 -5 7
-11z m-2392 -279 c21 -15 20 -17 -63 -109 -47 -51 -85 -97 -85 -102 0 -15 28
-10 37 5 5 8 41 51 81 95 85 94 77 93 175 1 38 -36 72 -78 87 -110 l24 -52
-44 -41 c-25 -23 -135 -118 -245 -212 -435 -369 -518 -453 -675 -679 -30 -42
-58 -76 -63 -76 -26 0 -109 57 -135 94 -39 54 -62 101 -62 124 0 10 46 70 101
133 148 166 180 204 249 299 65 89 282 415 390 585 35 55 71 105 79 112 13 9
27 5 72 -20 31 -18 65 -39 77 -47z m-3738 -263 c-16 -45 -20 -82 -20 -180 l0
-123 -37 -62 c-43 -69 -96 -132 -112 -132 -19 0 -12 30 39 184 76 226 60 220
-22 -9 -37 -101 -39 -106 -34 -57 3 28 1 52 -3 52 -12 0 -21 -53 -21 -121 0
-51 -7 -73 -50 -159 -116 -232 -142 -330 -143 -550 0 -229 5 -255 63 -310 51
-48 62 -66 115 -191 l34 -78 -27 -13 c-36 -17 -39 -39 -41 -248 -1 -127 4
-212 19 -309 11 -74 22 -136 25 -139 9 -9 5 40 -10 132 -8 49 -13 92 -10 94 2
2 17 -22 34 -54 16 -33 50 -88 75 -124 l46 -65 -78 -7 c-42 -3 -80 -3 -83 0
-10 10 -47 242 -59 367 -5 61 -10 160 -10 222 l0 111 30 11 c16 5 30 16 30 23
0 7 -22 56 -48 108 -41 80 -53 97 -80 106 -18 5 -37 15 -43 21 -5 5 -21 70
-35 144 -20 108 -25 165 -25 294 1 317 48 454 268 779 67 100 146 218 174 264
29 45 53 81 55 79 2 -2 -5 -29 -16 -60z m1518 -992 c35 -162 113 -377 147
-405 17 -14 45 -1 98 46 20 19 42 34 47 34 27 0 17 -35 -33 -108 -30 -44 -65
-101 -77 -128 -19 -38 -25 -44 -34 -32 -6 9 -49 127 -96 264 -84 246 -86 250
-136 300 -45 44 -54 60 -67 117 -14 65 -14 70 14 194 15 71 40 169 55 218 14
50 31 108 38 130 9 33 12 -9 17 -245 5 -239 9 -301 27 -385z m888 -177 c-3
-13 -12 -55 -21 -94 -15 -64 -15 -75 -1 -107 l15 -36 -51 -68 c-28 -37 -76
-95 -107 -129 -31 -34 -65 -76 -76 -95 -12 -19 -30 -35 -43 -37 -20 -3 -22 1
-22 45 0 78 16 114 71 168 57 56 80 97 98 169 7 27 22 63 34 80 26 38 99 126
104 126 2 0 1 -10 -1 -22z m639 -215 c-18 -54 -43 -145 -55 -203 -30 -140 -30
-140 -42 -110 -7 17 -6 74 2 174 11 150 15 170 29 162 4 -3 15 11 25 31 22 46
29 38 11 -12 -17 -47 -19 -79 -5 -70 6 3 10 14 10 23 1 24 37 102 48 102 5 0
-6 -44 -23 -97z m-1095 40 l24 -17 -40 -11 c-34 -9 -39 -15 -42 -42 -2 -18 11
-71 27 -120 17 -48 31 -93 31 -99 0 -7 -16 -18 -36 -24 -47 -16 -54 -6 -54 78
0 40 -4 62 -11 62 -9 0 -10 -24 -6 -84 l6 -85 -31 -7 c-39 -8 -55 10 -63 75
-4 25 -10 58 -15 72 -6 19 -3 34 12 58 11 17 22 31 25 31 3 0 1 -34 -2 -76 -6
-56 -5 -75 4 -70 6 4 11 15 11 25 0 9 9 36 21 60 11 23 35 76 54 117 19 41 40
74 47 74 8 0 24 -8 38 -17z m285 -34 c-11 -40 -27 -65 -78 -118 -69 -71 -87
-110 -87 -189 0 -55 14 -82 43 -82 32 0 64 25 86 68 22 43 70 90 91 89 8 0 43
3 78 7 57 6 62 5 62 -12 0 -24 27 -47 64 -56 15 -4 39 -14 53 -23 39 -26 9
-46 -77 -51 -50 -3 -70 -8 -70 -18 0 -8 15 -15 38 -17 20 -2 6 -2 -33 1 -93 6
-105 6 -209 -15 l-88 -17 -23 28 c-13 16 -28 55 -35 86 l-12 58 50 89 c28 48
58 114 68 145 15 51 20 57 39 52 15 -4 24 0 28 10 4 9 11 16 16 16 5 0 3 -22
-4 -51z"/>
</g>
</svg>
